<svg width="124" height="124" viewBox="0 0 124 124" fill="none" xmlns="http://www.w3.org/2000/svg">
<path d="M84.8051 48.2053C74.8231 28.2249 41.191 32.6217 36.3871 54.5714C33.4885 67.8159 45.7105 77.0848 47.2893 89.4878H75.3077C76.1315 86.1713 77.8078 82.227 78.9686 79.8027C81.3811 74.766 84.7934 71.4739 86.0891 65.8549C87.3217 60.5084 87.179 52.9578 84.8051 48.2053Z" stroke="black" stroke-width="3" stroke-miterlimit="1.5" stroke-linecap="round" stroke-linejoin="round"/>
<path fill-rule="evenodd" clip-rule="evenodd" d="M46.775 106.391C46.7669 102.564 46.5791 98.7366 46.6455 94.9106C46.6719 93.3955 46.4131 91.5424 47.7243 90.4831C49.639 88.9371 52.4871 88.7119 54.8633 88.6546C59.3169 88.5481 63.8048 88.5856 68.263 88.5948C70.2934 88.5982 73.3236 88.2457 75.1536 89.2546C76.8954 90.2131 77.3363 92.826 77.5321 94.5907C77.9077 97.9724 78.9074 105.524 76.0365 108.142C74.2282 109.791 71.4077 110.136 69.0921 110.421C62.9494 111.177 46.7841 111.026 46.775 106.391Z" stroke="black" stroke-width="3" stroke-miterlimit="1.5" stroke-linecap="round" stroke-linejoin="round"/>
<path d="M63.1463 110.746C63.1964 112.829 63.2209 114.923 63.0571 117.003" stroke="black" stroke-width="3" stroke-miterlimit="1.5" stroke-linecap="round" stroke-linejoin="round"/>
<path d="M14.5679 78.9479C16.7533 77.7945 19.0356 76.8456 21.2444 75.7423" stroke="black" stroke-width="3" stroke-miterlimit="1.5" stroke-linecap="round" stroke-linejoin="round"/>
<path d="M14.5679 34.1211C17.0073 35.6701 19.341 37.3821 21.786 38.9178" stroke="black" stroke-width="3" stroke-miterlimit="1.5" stroke-linecap="round" stroke-linejoin="round"/>
<path d="M62.7187 15.7599C62.6329 12.6919 62.6518 9.64587 62.7499 6.57898" stroke="black" stroke-width="3" stroke-miterlimit="1.5" stroke-linecap="round" stroke-linejoin="round"/>
<path d="M100.484 36.6589C103.546 34.6317 106.7 32.7273 109.815 30.7815" stroke="black" stroke-width="3" stroke-miterlimit="1.5" stroke-linecap="round" stroke-linejoin="round"/>
<path d="M95.1401 78.4656C97.5016 80.5819 99.8731 82.6737 102.159 84.8724" stroke="black" stroke-width="3" stroke-miterlimit="1.5" stroke-linecap="round" stroke-linejoin="round"/>
</svg>
